<svg width="151" height="16" viewBox="0 0 151 16" fill="none" xmlns="http://www.w3.org/2000/svg">
<path d="M139.393 10.2628C139.393 6.73195 141.507 5.04053 144.826 5.04053C148.125 5.04053 150.218 6.7531 150.218 10.2628C150.218 13.9839 147.892 15.4851 144.826 15.4851C141.782 15.4851 139.393 13.9839 139.393 10.2628ZM144.826 13.5822C146.75 13.5822 147.998 12.7577 147.998 10.2628C147.998 7.74681 146.75 6.94338 144.826 6.94338C142.923 6.94338 141.634 7.74681 141.634 10.2628C141.634 12.7577 142.923 13.5822 144.826 13.5822Z" fill="#171717"/>
<path d="M134.594 2.69308C134.594 2.03765 135.144 1.36108 136.053 1.36108C136.92 1.36108 137.512 1.95308 137.512 2.65079C137.512 3.34851 136.983 4.02508 136.053 4.02508C135.144 4.02508 134.594 3.39079 134.594 2.69308ZM137.174 15.3788H134.911V5.14565H137.174V15.3788Z" fill="#171717"/>
<path d="M131.925 15.3801H129.726V13.2024C128.965 14.7247 127.464 15.4858 126.196 15.4858C123.109 15.4858 121.1 13.3504 121.1 10.2635C121.1 7.15555 123.109 5.04126 126.196 5.04126C127.443 5.04126 128.881 5.71784 129.642 7.24012V0.432129H131.925V15.3801ZM126.534 13.583C128.437 13.583 129.663 12.103 129.663 10.2635C129.663 8.38183 128.458 6.94412 126.534 6.94412C124.61 6.94412 123.384 8.38183 123.384 10.2635C123.384 12.103 124.61 13.583 126.534 13.583Z" fill="#171717"/>
<path d="M119.011 15.3791L116.834 15.4003V13.0323C116.305 14.4911 115.311 15.4214 113.472 15.506C110.427 15.6328 109.159 13.7723 109.159 11.0237V5.146H111.421V10.8123C111.421 12.4403 111.844 13.7088 113.895 13.7088C115.819 13.7088 116.749 12.3557 116.749 10.5374V5.146H119.011V15.3791Z" fill="#171717"/>
<path d="M107.04 13.5393V15.3788H105.158C103.594 15.3788 102.896 14.7022 102.896 12.8839V6.94277H101.205V5.12449H102.938V2.62964H105.158V5.12449H107.167V6.94277H105.158V12.5033C105.158 13.5605 105.37 13.5605 107.04 13.5393Z" fill="#171717"/>
<path d="M99.961 5.9062H97.7622C97.6776 4.38392 95.9439 3.74963 94.2525 3.70735C92.5399 3.64392 90.8696 4.29935 91.0387 5.84277C91.3559 8.69705 99.9822 6.66734 100.067 11.9108C100.13 14.8708 97.2547 15.5473 94.633 15.5473C90.1296 15.5473 88.7342 13.2216 88.6919 11.1919H90.8907C90.9965 12.8833 92.709 13.6233 94.4005 13.6445C96.1553 13.6656 97.9525 13.433 97.8467 11.805C97.6142 8.82391 89.0936 10.769 88.8399 6.01191C88.6708 3.05192 90.8062 1.76221 94.3159 1.76221C98.9039 1.76221 99.8976 4.48963 99.961 5.9062Z" fill="#171717"/>
<path d="M76.1139 15.3993H73.8516V5.14504H76.0504V7.83018C76.7481 6.0119 78.355 5.08161 79.7081 5.06047C82.7738 5.01818 83.7887 7.02675 83.7887 9.5216V15.3993H81.5264V9.73303C81.5264 8.04161 80.7653 7.00561 79.0527 7.00561C77.1076 7.00561 76.1139 8.23189 76.1139 10.1136V15.3993Z" fill="#171717"/>
<path d="M60.8032 10.2821C60.8032 6.75124 62.9175 5.05981 66.2369 5.05981C69.5352 5.05981 71.6283 6.77238 71.6283 10.2821C71.6283 14.0032 69.3026 15.5044 66.2369 15.5044C63.1924 15.5044 60.8032 14.0032 60.8032 10.2821ZM66.2369 13.6015C68.1609 13.6015 69.4083 12.7769 69.4083 10.2821C69.4083 7.7661 68.1609 6.96267 66.2369 6.96267C64.3341 6.96267 63.0444 7.7661 63.0444 10.2821C63.0444 12.7769 64.3341 13.6015 66.2369 13.6015Z" fill="#171717"/>
<path d="M58.9007 8.12616H56.9767C56.9344 7.09016 55.7293 6.70959 54.2493 6.70959C52.9384 6.68845 51.7544 7.15359 51.8178 8.1473C51.9236 10.3462 59.2178 8.33759 59.1967 12.3336C59.1967 14.8073 56.9556 15.5684 54.6298 15.5684C50.7818 15.5684 49.7036 13.6233 49.6401 11.9742H51.6064C51.691 13.2639 53.3401 13.729 54.4396 13.7713C55.5601 13.8136 57.1247 13.433 57.1247 12.4393C57.1247 10.4942 49.767 12.2067 49.767 8.10502C49.767 5.88502 51.6487 4.93359 54.3127 4.93359C57.7167 4.93359 58.8373 6.54045 58.9007 8.12616Z" fill="#171717"/>
<path d="M38.0049 15.4004V1.40381H40.2672V10.2204L45.6374 5.16723H48.1534L43.7557 9.43808L48.4494 15.4004H45.6797L42.0854 10.8969L40.2672 12.5884V15.4004H38.0049Z" fill="#171717"/>
<path d="M30.4366 13.6015C31.8532 13.6015 33.0795 13.1787 33.4389 11.6987L35.7435 11.6775C35.2572 14.5107 33.0583 15.5044 30.4366 15.5044C27.3921 15.5044 25.0029 14.0032 25.0029 10.2821C25.0029 6.75124 27.1172 5.05981 30.4366 5.05981C33.6503 5.05981 35.3206 6.56095 35.7858 9.16152L33.5446 9.18266C33.2275 7.49124 32.0646 6.96267 30.4366 6.96267C28.5338 6.96267 27.2441 7.7661 27.2441 10.2821C27.2441 12.7769 28.5338 13.6015 30.4366 13.6015Z" fill="#171717"/>
<path d="M12.7158 10.2821C12.7158 6.75124 14.8301 5.05981 18.1495 5.05981C21.4478 5.05981 23.5409 6.77238 23.5409 10.2821C23.5409 14.0032 21.2152 15.5044 18.1495 15.5044C15.105 15.5044 12.7158 14.0032 12.7158 10.2821ZM18.1495 13.6015C20.0735 13.6015 21.3209 12.7769 21.3209 10.2821C21.3209 7.7661 20.0735 6.96267 18.1495 6.96267C16.2467 6.96267 14.957 7.7661 14.957 10.2821C14.957 12.7769 16.2467 13.6015 18.1495 13.6015Z" fill="#171717"/>
<path d="M8.81656 15.3979L7.33656 11.4019C7.10399 10.7253 6.93484 10.1333 5.5817 10.1333H2.34685V15.3979H0V1.97217H6.40627C9.07027 1.97217 11.1 3.13502 11.1 6.22188C11.1 8.25159 9.93713 9.41444 7.48456 9.41444V9.52015C8.22456 9.64701 9.34513 9.77387 9.85255 11.1904L11.3748 15.3979H8.81656ZM2.34685 8.6533H5.68742C7.44227 8.6533 8.79541 8.14587 8.79541 6.15845C8.79541 4.36131 7.63256 3.93845 5.96228 3.93845H2.34685V8.6533Z" fill="#171717"/>
</svg>
